# xmcd CD database file
#
# Track frame offsets:
#	150
#	10560
#	22588
#	36238
#	53488
#	80670
#	127663
#	174965
#	199063
#	215748
#
# Disc length: 3375 seconds
#
# Revision: 1
# Processed by: cddbd v1.5.2PL0 Copyright (c) Steve Scherf et al.
# Submitted via: CDex 1.70beta2
#
DISCID=6e0d2d0a
DTITLE=小泉文夫 - 小泉文夫の遺産民族音楽の礎-05 ナイルの歌 アラブの古典音楽
DYEAR=1900
DGENRE=World
TTITLE0=ナーイのタクシーム(ナーイの即興演奏と踊りの曲)
TTITLE1=ナーイの踊りの曲(ナーイの即興演奏と踊りの曲)
TTITLE2=カーヌーンのタクシーム(カーヌーンの即興演奏)
TTITLE3=カーヌーンのラストによるタクシーム(カーヌーンの即興演奏)
TTITLE4=ウードのソロ(ウードの即興演奏)(カッサブギー)
TTITLE5=ウードの新しいタクシーム(ウードの即興演奏)
TTITLE6=タハミラー(ベヤーティ)(器楽の合奏曲)
TTITLE7=サマイ(器楽の合奏曲)
TTITLE8=声楽のソロ(結婚の歌)(声楽の独唱と合唱)
TTITLE9=ドール形式(声楽の独唱と合唱)
EXTD=
EXTT0=
EXTT1=
EXTT2=
EXTT3=
EXTT4=
EXTT5=
EXTT6=
EXTT7=
EXTT8=
EXTT9=
PLAYORDER=
